<svg xmlns="http://www.w3.org/2000/svg" xmlns:xlink="http://www.w3.org/1999/xlink" viewBox="0,0,256,256" width="100px" height="100px"><g fill="#ebcb8b" fill-rule="nonzero" stroke="none" stroke-width="1" stroke-linecap="butt" stroke-linejoin="miter" stroke-miterlimit="10" stroke-dasharray="" stroke-dashoffset="0" font-family="none" font-weight="none" font-size="none" text-anchor="none" style="mix-blend-mode: normal"><g transform="scale(5.12,5.12)"><path d="M24.98242,3c-0.15588,0.00238 -0.30904,0.04118 -0.44727,0.11328l-21,11c-0.32946,0.173 -0.53563,0.5146 -0.53516,0.88672v3c0.00006,0.55226 0.44774,0.99994 1,1h2.99219v18h-1.99219c-0.55226,0.00006 -0.99994,0.44774 -1,1v2h-1c-0.55226,0.00006 -0.99994,0.44774 -1,1v3c0.00006,0.55226 0.44774,0.99994 1,1h21v-2h-20v-1h1c0.55226,-0.00006 0.99994,-0.44774 1,-1v-2h1.87891c0.04017,0.00503 0.08061,0.00764 0.12109,0.00781h4c0.03853,-0.0004 0.077,-0.00301 0.11523,-0.00781h5.76367c0.04017,0.00503 0.08061,0.00764 0.12109,0.00781h4c0.03853,-0.0004 0.077,-0.00301 0.11523,-0.00781h1.88477v-2h-0.99219v-18h3.98438v11.43555c0.618,-0.274 1.29762,-0.43159 2.01562,-0.43359v-10.99414h1.98438v10.99219h2.01562v-11h3.98438v11h2.01562v-10.99219h1.98438v10.99219h2.01562v-11h2.99219c0.55226,-0.00006 0.99994,-0.44774 1,-1v-3c0.00047,-0.37212 -0.2057,-0.71372 -0.53516,-0.88672l-21,-11c-0.14876,-0.07763 -0.31466,-0.11659 -0.48242,-0.11328zM25,5.13086l20,10.47461v1.39453h-2.96094c-0.01372,-0.00055 -0.0252,-0.00781 -0.03906,-0.00781h-4c-0.01385,0 -0.02535,0.00726 -0.03906,0.00781h-5.92188c-0.01372,-0.00055 -0.0252,-0.00781 -0.03906,-0.00781h-4c-0.01384,0 -0.02535,0.00726 -0.03906,0.00781h-5.83984c-0.04017,-0.00503 -0.08061,-0.00764 -0.12109,-0.00781h-4c-0.03853,0.0004 -0.077,0.00301 -0.11523,0.00781h-5.76367c-0.04017,-0.00503 -0.08061,-0.00764 -0.12109,-0.00781h-4c-0.03853,0.0004 -0.077,0.00301 -0.11523,0.00781h-2.88477v-1.39453zM25,8c-2.19729,0 -4,1.80271 -4,4c0,2.19729 1.80271,4 4,4c2.19729,0 4,-1.80271 4,-4c0,-2.19729 -1.80271,-4 -4,-4zM25,10c1.11641,0 2,0.88359 2,2c0,1.11641 -0.88359,2 -2,2c-1.11641,0 -2,-0.88359 -2,-2c0,-1.11641 0.88359,-2 2,-2zM13.00781,19h3.98438v18h-3.98438zM9.00781,19.00781h1.98438v17.98438h-1.98438zM19.00781,19.00781h1.98438v17.98438h-1.98438zM29,32c-1.58278,0 -3,1.22294 -3,2.86523v10.26953c0,1.58275 1.32493,2.86523 2.9082,2.86523h17.18359c1.58215,0 2.90974,-1.28383 2.9082,-2.86914v-10.26562c0,-1.64165 -1.41672,-2.86523 -3,-2.86523zM29,34h17c0.52672,0 1,0.44689 1,0.86523v10.26758c0.00046,0.48069 -0.38235,0.86719 -0.9082,0.86719h-17.18359c-0.52672,0 -0.9082,-0.38799 -0.9082,-0.86523v-10.26953c0,-0.4177 0.47478,-0.86523 1,-0.86523zM41.65625,36c-0.363,0 -0.65625,0.26861 -0.65625,0.59961v1.80078c0,0.331 0.29425,0.59961 0.65625,0.59961h2.62695c0.363,0 0.6572,-0.26861 0.6582,-0.59961v-1.80078c0,-0.331 -0.2952,-0.59961 -0.6582,-0.59961zM31,41c-0.36064,-0.0051 -0.69608,0.18438 -0.87789,0.49587c-0.18181,0.3115 -0.18181,0.69676 0,1.00825c0.18181,0.3115 0.51725,0.50097 0.87789,0.49587h1c0.36064,0.0051 0.69608,-0.18438 0.87789,-0.49587c0.18181,-0.3115 0.18181,-0.69676 0,-1.00825c-0.18181,-0.3115 -0.51725,-0.50097 -0.87789,-0.49587zM35,41c-0.36064,-0.0051 -0.69608,0.18438 -0.87789,0.49587c-0.18181,0.3115 -0.18181,0.69676 0,1.00825c0.18181,0.3115 0.51725,0.50097 0.87789,0.49587h1c0.36064,0.0051 0.69608,-0.18438 0.87789,-0.49587c0.18181,-0.3115 0.18181,-0.69676 0,-1.00825c-0.18181,-0.3115 -0.51725,-0.50097 -0.87789,-0.49587zM39,41c-0.36064,-0.0051 -0.69608,0.18438 -0.87789,0.49587c-0.18181,0.3115 -0.18181,0.69676 0,1.00825c0.18181,0.3115 0.51725,0.50097 0.87789,0.49587h1c0.36064,0.0051 0.69608,-0.18438 0.87789,-0.49587c0.18181,-0.3115 0.18181,-0.69676 0,-1.00825c-0.18181,-0.3115 -0.51725,-0.50097 -0.87789,-0.49587zM43,41c-0.36064,-0.0051 -0.69608,0.18438 -0.87789,0.49587c-0.18181,0.3115 -0.18181,0.69676 0,1.00825c0.18181,0.3115 0.51725,0.50097 0.87789,0.49587h1c0.36064,0.0051 0.69608,-0.18438 0.87789,-0.49587c0.18181,-0.3115 0.18181,-0.69676 0,-1.00825c-0.18181,-0.3115 -0.51725,-0.50097 -0.87789,-0.49587z"></path></g></g></svg>