<svg xmlns="http://www.w3.org/2000/svg" xmlns:xlink="http://www.w3.org/1999/xlink" viewBox="0,0,256,256" width="128px" height="128px"><g fill="#ebcb8b" fill-rule="nonzero" stroke="none" stroke-width="1" stroke-linecap="butt" stroke-linejoin="miter" stroke-miterlimit="10" stroke-dasharray="" stroke-dashoffset="0" font-family="none" font-weight="none" font-size="none" text-anchor="none" style="mix-blend-mode: normal"><g transform="scale(4,4)"><path d="M6,9c-0.55226,0.00006 -0.99994,0.44774 -1,1v14c0.00005,0.2652 0.10543,0.51952 0.29297,0.70703l4.70703,4.70703v25.58594c0.00006,0.55226 0.44774,0.99994 1,1h20.5c0.2652,-0.00005 0.51952,-0.10543 0.70703,-0.29297l0.29297,-0.29297l0.29297,0.29297c0.18751,0.18754 0.44183,0.29292 0.70703,0.29297h20.5c0.55226,-0.00006 0.99994,-0.44774 1,-1v-25.64844l3.78125,-4.72656c0.14177,-0.17745 0.21892,-0.39787 0.21875,-0.625v-14c-0.00006,-0.55226 -0.44774,-0.99994 -1,-1zM7,11h50v12.64844l-3.78125,4.72656c-0.14177,0.17745 -0.21892,0.39787 -0.21875,0.625v25h-19.08594l6.29297,-6.29297c0.28583,-0.28603 0.37129,-0.71604 0.21656,-1.08963c-0.15474,-0.37359 -0.51922,-0.61724 -0.92359,-0.6174h-3.5v-4.56445c6.2894,-1.58579 11,-7.1643 11,-13.93555c0,-7.95171 -6.00359,-14.5 -14,-14.5c-0.54472,-0.00005 -0.98931,0.43585 -1,0.98047l-0.06445,3.45508c-2.48509,0.3141 -4.67773,2.19861 -4.67773,4.78516c0,1.61993 0.83884,2.88105 1.90625,3.69727c1.06741,0.81622 2.34635,1.31917 3.55078,1.82617c1.20444,0.50701 2.33078,1.01516 3.07813,1.63867c0.74735,0.62351 1.1543,1.2618 1.1543,2.41992c0,1.11938 -0.57129,1.83055 -1.51172,2.40039c-0.52049,0.31538 -1.15615,0.33509 -1.78125,0.47852c-0.27707,-1.92039 -0.91584,-3.47097 -1.95703,-4.27344c-1.36713,-1.05368 -3.27262,-1.0981 -4.24609,0.17188c-0.91637,1.19472 -0.66593,2.82434 0.1875,4.12891c0.80755,1.23444 2.33252,2.17831 4.28125,2.2832v1.43945c-0.0051,0.36064 0.18438,0.69608 0.49587,0.87789c0.3115,0.18181 0.69676,0.18181 1.00825,0c0.3115,-0.18181 0.50097,-0.51725 0.49587,-0.87789v-1.58203c0.87102,-0.17606 1.74703,-0.44734 2.55273,-0.93555c1.34282,-0.81366 2.47461,-2.23471 2.47461,-4.11133c0,-1.71937 -0.80352,-3.06278 -1.87305,-3.95508c-1.06953,-0.8923 -2.36592,-1.43452 -3.58398,-1.94727c-1.21806,-0.51274 -2.36186,-0.99917 -3.11133,-1.57227c-0.74947,-0.5731 -1.12109,-1.10285 -1.12109,-2.10742c0,-1.30701 1.24206,-2.32251 2.66016,-2.64844c-0.09373,2.08789 0.34933,3.58036 1.35352,4.39063c1.04253,0.8412 2.49289,0.65853 3.43164,-0.08789c1.26765,-1.00788 1.34065,-2.82028 0.54883,-4.17383c-0.60841,-1.04002 -1.84033,-1.733 -3.32031,-2.07227l0.04883,-2.5293c6.39874,0.50678 11.01953,5.78108 11.01953,12.40039c0,6.12228 -4.38844,11.18949 -10.18359,12.27539c-0.47378,0.08853 -0.81703,0.50239 -0.81641,0.98438v6.24023c0.00006,0.55226 0.44774,0.99994 1,1h2.08594l-4.58594,4.58594l-4.58594,-4.58594h2.08594c0.55226,-0.00006 0.99994,-0.44774 1,-1v-6.24023c0.00062,-0.48198 -0.34262,-0.89585 -0.81641,-0.98437c-5.79527,-1.08684 -10.18359,-6.15418 -10.18359,-12.27539c0,-5.18857 3.15204,-9.62419 7.63867,-11.51953c0.34089,-0.13085 0.58337,-0.43709 0.63258,-0.7989c0.04921,-0.36181 -0.10268,-0.72168 -0.39624,-0.93882c-0.29356,-0.21714 -0.68213,-0.25704 -1.01369,-0.10408c-5.20937,2.20066 -8.86133,7.36189 -8.86133,13.36133c0,6.77036 4.71071,12.34885 11,13.93555v4.56445h-3.5c-0.40437,0.00016 -0.76885,0.24381 -0.92359,0.6174c-0.15474,0.37359 -0.06927,0.8036 0.21656,1.08963l6.29297,6.29297h-19.08594v-25c-0.00005,-0.2652 -0.10543,-0.51952 -0.29297,-0.70703l-4.70703,-4.70703zM33.90625,19.60742c0.75545,0.25949 1.34678,0.63795 1.61914,1.10352c0.41342,0.7067 0.32994,1.28449 -0.06641,1.59961c-0.37425,0.29758 -0.64592,0.32625 -0.93164,0.0957c-0.27789,-0.22423 -0.70694,-1.04018 -0.62109,-2.79883zM29.54102,31.60156c0.24674,0.0043 0.56636,0.10804 0.93555,0.39258c0.556,0.42852 1.02443,1.48575 1.24219,2.95313c-1.14212,-0.15046 -1.96712,-0.66076 -2.40625,-1.33203c-0.50907,-0.77818 -0.45007,-1.58808 -0.27344,-1.81836c0.08126,-0.10601 0.25522,-0.19963 0.50195,-0.19531z"></path></g></g></svg>